<svg width="113" height="48" viewBox="0 0 113 48" fill="none" xmlns="http://www.w3.org/2000/svg">
<path d="M16.0696 25.6593L5.99781 40.1185C5.69604 40.553 5.39425 40.8889 5.09248 41.1259C4.79071 41.363 4.31917 41.4815 3.6779 41.4815H1.24483C0.90533 41.4815 0.603558 41.363 0.339499 41.1259C0.113166 40.8493 0 40.5333 0 40.1778C0 39.9407 0.056583 39.7234 0.169749 39.5259L13.5234 20.3259L0.73558 1.95556C0.622414 1.71852 0.565831 1.50123 0.565831 1.3037C0.565831 0.948149 0.678997 0.651853 0.90533 0.414816C1.16939 0.138272 1.47116 0 1.81066 0H4.47007C5.11134 0 5.58287 0.138272 5.88464 0.414816C6.22414 0.691358 6.54478 1.04691 6.84656 1.48148L16.0696 14.7556V1.6C16.0696 1.16543 16.2205 0.790126 16.5223 0.474075C16.824 0.158025 17.1825 0 17.5973 0H19.9173C20.3321 0 20.6906 0.158025 20.9923 0.474075C21.2941 0.790126 21.445 1.16543 21.445 1.6V14.7556L30.668 1.48148C30.9698 1.04691 31.2716 0.691358 31.5734 0.414816C31.9129 0.138272 32.4033 0 33.0445 0H35.7039C36.0434 0 36.3264 0.138272 36.5527 0.414816C36.8168 0.651853 36.9488 0.948149 36.9488 1.3037C36.9488 1.50123 36.8922 1.71852 36.779 1.95556L23.9912 20.3259L37.3449 39.5259C37.458 39.7234 37.5146 39.9407 37.5146 40.1778C37.5146 40.5333 37.3826 40.8493 37.1185 41.1259C36.8922 41.363 36.6093 41.4815 36.2698 41.4815H33.8367C33.1955 41.4815 32.7239 41.363 32.4221 41.1259C32.1204 40.8889 31.8185 40.553 31.5168 40.1185L21.445 25.6593V39.8815C21.445 40.316 21.2941 40.6914 20.9923 41.0074C20.6906 41.3234 20.3321 41.4815 19.9173 41.4815H17.5973C17.1825 41.4815 16.824 41.3234 16.5223 41.0074C16.2205 40.6914 16.0696 40.316 16.0696 39.8815V25.6593ZM46.6802 1.6C46.6802 1.16543 46.831 0.790126 47.1329 0.474075C47.4346 0.158025 47.7929 0 48.208 0H71.5202C71.9351 0 72.2934 0.158025 72.5953 0.474075C72.897 0.790126 73.0479 1.16543 73.0479 1.6V36.1481H74.3494C74.7643 36.1481 75.1226 36.3062 75.4244 36.6222C75.7262 36.9382 75.8771 37.3136 75.8771 37.7481V46.4C75.8771 46.8345 75.7262 47.2099 75.4244 47.5259C75.1226 47.8419 74.7643 48 74.3494 48H72.0294C71.6144 48 71.2561 47.8419 70.9544 47.5259C70.6525 47.2099 70.5017 46.8345 70.5017 46.4V41.4815H45.0959V46.4C45.0959 46.8345 44.945 47.2099 44.6432 47.5259C44.3414 47.8419 43.983 48 43.5681 48H41.2482C40.8332 48 40.4749 47.8419 40.1732 47.5259C39.8713 47.2099 39.7205 46.8345 39.7205 46.4V37.7481C39.7205 37.3136 39.8713 36.9382 40.1732 36.6222C40.4749 36.3062 40.8332 36.1481 41.2482 36.1481H42.1536C43.8133 36.1481 44.9827 35.6544 45.6617 34.6667C46.3407 33.679 46.6802 31.8222 46.6802 29.0963V1.6ZM52.0556 30.1037C52.0556 33.0271 51.6406 35.0419 50.8108 36.1481H67.6726V5.33333H52.0556V30.1037ZM99.3635 0C103.287 0 106.531 1.06667 109.096 3.2C111.699 5.33334 113 8.45433 113 12.563C113 15.3284 112.378 17.679 111.133 19.6148C109.926 21.5507 108.285 22.9926 106.21 23.9407C104.173 24.8889 101.891 25.363 99.3635 25.363H88.9522V39.8815C88.9522 40.316 88.8012 40.6914 88.4995 41.0074C88.1978 41.3234 87.8393 41.4815 87.4244 41.4815H85.1045C84.6896 41.4815 84.3312 41.3234 84.0295 41.0074C83.7277 40.6914 83.5768 40.316 83.5768 39.8815V1.6C83.5768 1.16543 83.7277 0.790126 84.0295 0.474075C84.3312 0.158025 84.6896 0 85.1045 0H99.3635ZM99.0806 20.0296C101.834 20.0296 103.947 19.4173 105.418 18.1926C106.889 16.9284 107.625 15.0519 107.625 12.563C107.625 7.74322 104.777 5.33333 99.0806 5.33333H88.9522V20.0296H99.0806Z" fill="white"/>
</svg>
